<svg width="88" height="88" viewBox="0 0 88 88" fill="none" xmlns="http://www.w3.org/2000/svg">
<circle cx="44" cy="44" r="44" fill="#F4FFF5"/>
<path d="M42.6274 15.0012C42.4152 15.0043 42.2007 15.0194 41.9874 15.0512C41.0207 15.1951 40.1235 15.6623 39.6393 16.1541L42.5781 34.28L40.5991 34.926L32.3842 18.021C31.7259 17.9242 30.7754 18.0877 29.9024 18.5636C28.9964 19.0572 28.2775 19.823 27.9654 20.5482L35.741 36.8712L34.029 38.0706L23.3887 26.6341C22.7351 26.7677 21.9124 27.2532 21.2444 28.0155C20.5484 28.8099 20.0962 29.8165 20 30.6107L34.0257 45.9771L34.0398 45.9914C35.9271 47.9888 36.1846 51.321 35.7304 55.4787C35.3139 59.2953 34.1907 63.9187 32.6478 69H54.3824C51.8012 61.9079 51.2609 55.5313 51.5068 50.4388C50.5469 50.9196 49.6032 51.3111 48.6699 51.5776C46.6308 52.1596 44.5574 52.107 42.7364 50.9885L43.8261 49.1609C45.093 49.939 46.4236 50.001 48.104 49.5213C49.7845 49.0416 51.7381 47.9755 53.8796 46.5979C57.922 43.9975 62.636 40.3259 68 37.6672C67.3433 36.3731 66.6184 35.696 65.8524 35.3899C64.9215 35.0178 63.7621 35.1087 62.3582 35.604C60.2128 36.3613 57.6732 38.0435 55.0923 39.6663L53.4894 38.6063L53.6056 38.0779L53.8656 36.9214C53.8619 36.9219 53.8589 36.9242 53.855 36.9248L57.9222 18.1245C57.4487 17.4903 56.5513 16.8475 55.5423 16.5146C54.5795 16.1967 53.616 16.1975 52.9799 16.4111L49.4118 32.8236L47.3486 32.7593L44.6308 15.4759C44.1601 15.199 43.531 15.021 42.8382 15.0012C42.7679 14.9996 42.6976 14.9996 42.6273 15.0012H42.6274Z" fill="#34A853"/>
</svg>
