<svg width="88" height="88" viewBox="0 0 88 88" fill="none" xmlns="http://www.w3.org/2000/svg">
<circle cx="44" cy="44" r="44" fill="#F4FFF5"/>
<path d="M44 41.7778C45.4667 41.7778 46.7227 41.2451 47.768 40.1798C48.8133 39.1145 49.3351 37.8324 49.3333 36.3333C49.3316 34.8343 48.8098 33.553 47.768 32.4895C46.7262 31.4261 45.4702 30.8925 44 30.8889C42.5298 30.8853 41.2747 31.4188 40.2347 32.4895C39.1947 33.5603 38.672 34.8415 38.6667 36.3333C38.6613 37.8251 39.184 39.1073 40.2347 40.1798C41.2853 41.2524 42.5404 41.785 44 41.7778ZM30.6667 41.2333V30.8889H25.3333V33.6111C25.3333 35.3352 25.8222 36.8896 26.8 38.2743C27.7778 39.659 29.0667 40.6453 30.6667 41.2333ZM57.3333 41.2333C58.9333 40.6435 60.2222 39.6562 61.2 38.2715C62.1778 36.8868 62.6667 35.3334 62.6667 33.6111V30.8889H57.3333V41.2333ZM41.3333 63.5555V55.1166C39.1556 54.6176 37.2116 53.6766 35.5013 52.2937C33.7911 50.9108 32.5351 49.1749 31.7333 47.0861C28.4 46.6778 25.6116 45.1923 23.368 42.6298C21.1244 40.0673 20.0018 37.0611 20 33.6111V30.8889C20 29.3917 20.5227 28.1104 21.568 27.0451C22.6133 25.9798 23.8684 25.4463 25.3333 25.4444H30.6667C30.6667 23.9472 31.1893 22.666 32.2347 21.6007C33.28 20.5354 34.5351 20.0018 36 20H52C53.4667 20 54.7227 20.5336 55.768 21.6007C56.8133 22.6678 57.3351 23.949 57.3333 25.4444H62.6667C64.1333 25.4444 65.3893 25.978 66.4347 27.0451C67.48 28.1122 68.0018 29.3935 68 30.8889V33.6111C68 37.0592 66.8773 40.0655 64.632 42.6298C62.3867 45.1941 59.5982 46.6796 56.2667 47.0861C55.4667 49.1731 54.2115 50.909 52.5013 52.2937C50.7911 53.6784 48.8462 54.6194 46.6667 55.1166V63.5555H54.6667C55.4222 63.5555 56.056 63.8169 56.568 64.3395C57.08 64.8622 57.3351 65.5083 57.3333 66.2777C57.3316 67.0472 57.0756 67.6942 56.5653 68.2187C56.0551 68.7432 55.4222 69.0036 54.6667 69H33.3333C32.5778 69 31.9449 68.7386 31.4347 68.216C30.9244 67.6933 30.6684 67.0472 30.6667 66.2777C30.6649 65.5083 30.9209 64.8622 31.4347 64.3395C31.9484 63.8169 32.5813 63.5555 33.3333 63.5555H41.3333Z" fill="#34A853"/>
</svg>
