<svg width="88" height="88" viewBox="0 0 88 88" fill="none" xmlns="http://www.w3.org/2000/svg">
<circle cx="44" cy="44" r="44" fill="#F4FFF5"/>
<path d="M44 13C42.4087 13 40.8826 13.6221 39.7574 14.7295C38.6321 15.8368 38 17.3387 38 18.9048C38 22.1819 40.67 24.8095 44 24.8095C47.33 24.8095 50 22.1819 50 18.9048C50 17.3387 49.3679 15.8368 48.2426 14.7295C47.1174 13.6221 45.5913 13 44 13ZM38 27.7619C37.19 27.7619 36.5 28.0867 35.93 28.5886H35.9L20 44.2657L24.26 48.4286L35 37.8295V75H41V54.3333H47V75H53V37.8295L63.74 48.4286L68 44.2657L52.1 28.5886C51.5 28.0867 50.81 27.7619 50 27.7619" fill="#59A96A"/>
</svg>
