<svg width="21" height="20" viewBox="0 0 21 20" fill="none" xmlns="http://www.w3.org/2000/svg">
<path d="M1.25802 0.553437C0.532757 1.29135 0.532757 2.48775 1.25802 3.22567L7.91619 10L1.25802 16.7743C0.532754 17.5123 0.532756 18.7086 1.25802 19.4466C1.98328 20.1845 3.15917 20.1845 3.88443 19.4466L10.5426 12.6722L17.2007 19.4465C17.926 20.1845 19.1019 20.1845 19.8271 19.4465C20.5524 18.7086 20.5524 17.5122 19.8271 16.7743L13.169 10L19.8271 3.2257C20.5524 2.48778 20.5524 1.29138 19.8271 0.553464C19.1019 -0.184451 17.926 -0.184451 17.2007 0.553466L10.5426 7.32777L3.88443 0.553437C3.15916 -0.18448 1.98328 -0.18448 1.25802 0.553437Z" fill="#59A96A"/>
</svg>
